<svg width="19" height="20" viewBox="0 0 19 20" fill="none" xmlns="http://www.w3.org/2000/svg">
<path d="M9.5 11.7812C10.4838 11.7812 11.2812 10.9838 11.2812 10C11.2812 9.01624 10.4838 8.21875 9.5 8.21875C8.51624 8.21875 7.71875 9.01624 7.71875 10C7.71875 10.9838 8.51624 11.7812 9.5 11.7812Z" stroke="#8C8C8C" stroke-width="1.1875" stroke-miterlimit="10"/>
<path d="M9.5 5.84375C10.4838 5.84375 11.2812 5.04626 11.2812 4.0625C11.2812 3.07874 10.4838 2.28125 9.5 2.28125C8.51624 2.28125 7.71875 3.07874 7.71875 4.0625C7.71875 5.04626 8.51624 5.84375 9.5 5.84375Z" stroke="#8C8C8C" stroke-width="1.1875" stroke-miterlimit="10"/>
<path d="M9.5 17.7188C10.4838 17.7188 11.2812 16.9213 11.2812 15.9375C11.2812 14.9537 10.4838 14.1562 9.5 14.1562C8.51624 14.1562 7.71875 14.9537 7.71875 15.9375C7.71875 16.9213 8.51624 17.7188 9.5 17.7188Z" stroke="#8C8C8C" stroke-width="1.1875" stroke-miterlimit="10"/>
</svg>
