<svg width="32" height="32" viewBox="0 0 32 32" fill="none" xmlns="http://www.w3.org/2000/svg">
<path d="M15.9998 13.818V18.4653H22.4579C22.1743 19.9598 21.3233 21.2253 20.047 22.0762L23.9415 25.0981C26.2106 23.0036 27.5197 19.9272 27.5197 16.2727C27.5197 15.4218 27.4433 14.6035 27.3015 13.8181L15.9998 13.818Z" fill="#4285F4"/>
<path d="M9.27461 18.284L8.39625 18.9564L5.28711 21.3782C7.26165 25.2945 11.3086 28 15.9995 28C19.2394 28 21.9557 26.9309 23.9412 25.0982L20.0467 22.0764C18.9776 22.7963 17.614 23.2328 15.9995 23.2328C12.8795 23.2328 10.2287 21.1273 9.27952 18.2909L9.27461 18.284Z" fill="#34A853"/>
<path d="M5.28718 10.6223C4.46904 12.2367 4 14.0586 4 16.0004C4 17.9421 4.46904 19.764 5.28718 21.3785C5.28718 21.3893 9.27997 18.2803 9.27997 18.2803C9.03998 17.5603 8.89812 16.7967 8.89812 16.0002C8.89812 15.2038 9.03998 14.4402 9.27997 13.7202L5.28718 10.6223Z" fill="#FBBC05"/>
<path d="M15.9997 8.77818C17.767 8.77818 19.3379 9.38907 20.5925 10.5673L24.0288 7.13095C21.9452 5.18917 19.2398 4 15.9997 4C11.3089 4 7.26165 6.69454 5.28711 10.6218L9.27978 13.72C10.2288 10.8836 12.8798 8.77818 15.9997 8.77818Z" fill="#EA4335"/>
</svg>
