<svg width="24" height="25" viewBox="0 0 24 25" fill="none" xmlns="http://www.w3.org/2000/svg">
<path d="M19.5787 20.75H4.42122C4.23665 20.75 4.05856 20.6819 3.92103 20.5588C3.7835 20.4358 3.69619 20.2663 3.67581 20.0828L2.34248 8.08282C2.33083 7.97799 2.34143 7.87188 2.37357 7.77142C2.40572 7.67095 2.4587 7.5784 2.52904 7.49981C2.59939 7.42121 2.68553 7.35834 2.78182 7.31529C2.87812 7.27225 2.98241 7.25 3.08789 7.25H20.912C21.0175 7.25 21.1218 7.27225 21.2181 7.31529C21.3144 7.35834 21.4005 7.42121 21.4708 7.49981C21.5412 7.5784 21.5942 7.67095 21.6263 7.77142C21.6585 7.87188 21.6691 7.97799 21.6574 8.08282L20.3241 20.0828C20.3037 20.2663 20.2164 20.4358 20.0789 20.5588C19.9413 20.6819 19.7632 20.75 19.5787 20.75Z" stroke="black" stroke-width="1.5" stroke-linecap="round" stroke-linejoin="round"/>
<path d="M8.25 10.25V7.25C8.25 6.25544 8.64509 5.30161 9.34835 4.59835C10.0516 3.89509 11.0054 3.5 12 3.5C12.9946 3.5 13.9484 3.89509 14.6517 4.59835C15.3549 5.30161 15.75 6.25544 15.75 7.25V10.25" stroke="black" stroke-width="1.5" stroke-linecap="round" stroke-linejoin="round"/>
</svg>
